<mxfile host="app.diagrams.net" modified="2024-01-22T03:32:56.133Z" agent="Mozilla/5.0 (X11; Linux x86_64) AppleWebKit/537.36 (KHTML, like Gecko) Chrome/121.0.0.0 Safari/537.36 Edg/121.0.0.0" etag="s6Q9zF3n-l9oieU63JQo" version="22.1.21" type="github">
  <diagram name="Page-1" id="74e2e168-ea6b-b213-b513-2b3c1d86103e">
    <mxGraphModel dx="1102" dy="642" grid="1" gridSize="10" guides="1" tooltips="1" connect="1" arrows="1" fold="1" page="1" pageScale="1" pageWidth="1100" pageHeight="850" background="#ffffff" math="0" shadow="0">
      <root>
        <mxCell id="0" />
        <mxCell id="1" parent="0" />
        <mxCell id="iOC6fSmJqCydzc7WDYuV-107" value="" style="group" vertex="1" connectable="0" parent="1">
          <mxGeometry x="298" y="130" width="521" height="350" as="geometry" />
        </mxCell>
        <mxCell id="xviSgolfPBOpMJryr8qm-25" value="&lt;font style=&quot;font-size: 12px;&quot;&gt;TC Location &lt;br style=&quot;&quot;&gt;Processor&lt;/font&gt;" style="rounded=1;whiteSpace=wrap;html=1;shadow=0;labelBackgroundColor=none;strokeWidth=1;fontFamily=Helvetica;fontSize=11;align=center;strokeColor=#6c8ebf;fillColor=#dae8fc;fontStyle=1;movable=1;resizable=1;rotatable=1;deletable=1;editable=1;locked=0;connectable=1;" parent="iOC6fSmJqCydzc7WDYuV-107" vertex="1">
          <mxGeometry x="140" width="100" height="40" as="geometry" />
        </mxCell>
        <mxCell id="xviSgolfPBOpMJryr8qm-26" value="&lt;font style=&quot;font-size: 12px;&quot;&gt;Himawari &lt;br style=&quot;&quot;&gt;Processor&lt;/font&gt;" style="rounded=1;whiteSpace=wrap;html=1;shadow=0;labelBackgroundColor=none;strokeWidth=1;fontFamily=Helvetica;fontSize=11;align=center;strokeColor=#6c8ebf;fillColor=#dae8fc;fontStyle=1;movable=1;resizable=1;rotatable=1;deletable=1;editable=1;locked=0;connectable=1;" parent="iOC6fSmJqCydzc7WDYuV-107" vertex="1">
          <mxGeometry x="140" y="80" width="100" height="40" as="geometry" />
        </mxCell>
        <mxCell id="xviSgolfPBOpMJryr8qm-27" value="&lt;font style=&quot;font-size: 12px;&quot;&gt;FNL&lt;br&gt;Processor&lt;/font&gt;" style="rounded=1;whiteSpace=wrap;html=1;shadow=0;labelBackgroundColor=none;strokeWidth=1;fontFamily=Helvetica;fontSize=11;align=center;strokeColor=#6c8ebf;fillColor=#dae8fc;fontStyle=1;movable=1;resizable=1;rotatable=1;deletable=1;editable=1;locked=0;connectable=1;" parent="iOC6fSmJqCydzc7WDYuV-107" vertex="1">
          <mxGeometry x="421" y="80" width="100" height="40" as="geometry" />
        </mxCell>
        <mxCell id="xviSgolfPBOpMJryr8qm-36" value="&lt;font style=&quot;font-size: 14px;&quot;&gt;DLTC&lt;/font&gt;" style="rounded=1;whiteSpace=wrap;html=1;shadow=0;labelBackgroundColor=none;strokeWidth=1;fontFamily=Helvetica;fontSize=14;align=center;strokeColor=#d6b656;fillColor=#fff2cc;fontStyle=1;movable=1;resizable=1;rotatable=1;deletable=1;editable=1;locked=0;connectable=1;" parent="iOC6fSmJqCydzc7WDYuV-107" vertex="1">
          <mxGeometry y="230" width="100" height="40" as="geometry" />
        </mxCell>
        <mxCell id="xviSgolfPBOpMJryr8qm-37" value="&lt;font style=&quot;font-size: 14px;&quot;&gt;TCSA&lt;/font&gt;" style="rounded=1;whiteSpace=wrap;html=1;shadow=0;labelBackgroundColor=none;strokeWidth=1;fontFamily=Helvetica;fontSize=14;align=center;strokeColor=#d6b656;fillColor=#fff2cc;fontStyle=1;movable=1;resizable=1;rotatable=1;deletable=1;editable=1;locked=0;connectable=1;" parent="iOC6fSmJqCydzc7WDYuV-107" vertex="1">
          <mxGeometry x="140" y="230" width="100" height="40" as="geometry" />
        </mxCell>
        <mxCell id="xviSgolfPBOpMJryr8qm-40" value="&lt;font style=&quot;font-size: 14px;&quot;&gt;TCRE&lt;/font&gt;" style="rounded=1;whiteSpace=wrap;html=1;shadow=0;labelBackgroundColor=none;strokeWidth=1;fontFamily=Helvetica;fontSize=14;align=center;strokeColor=#d6b656;fillColor=#fff2cc;fontStyle=1;movable=1;resizable=1;rotatable=1;deletable=1;editable=1;locked=0;connectable=1;" parent="iOC6fSmJqCydzc7WDYuV-107" vertex="1">
          <mxGeometry x="421" y="230" width="100" height="40" as="geometry" />
        </mxCell>
        <mxCell id="xviSgolfPBOpMJryr8qm-41" value="&lt;font style=&quot;font-size: 14px;&quot;&gt;TCRI&lt;/font&gt;" style="rounded=1;whiteSpace=wrap;html=1;shadow=0;labelBackgroundColor=none;strokeWidth=1;fontFamily=Helvetica;fontSize=14;align=center;strokeColor=#d6b656;fillColor=#fff2cc;fontStyle=1;movable=1;resizable=1;rotatable=1;deletable=1;editable=1;locked=0;connectable=1;" parent="iOC6fSmJqCydzc7WDYuV-107" vertex="1">
          <mxGeometry x="281" y="230" width="100" height="40" as="geometry" />
        </mxCell>
        <mxCell id="xviSgolfPBOpMJryr8qm-47" style="edgeStyle=orthogonalEdgeStyle;rounded=0;orthogonalLoop=1;jettySize=auto;html=1;entryX=0.5;entryY=0;entryDx=0;entryDy=0;strokeColor=default;fontFamily=Helvetica;fontStyle=1;movable=1;resizable=1;rotatable=1;deletable=1;editable=1;locked=0;connectable=1;" parent="iOC6fSmJqCydzc7WDYuV-107" source="xviSgolfPBOpMJryr8qm-36" target="iOC6fSmJqCydzc7WDYuV-18" edge="1">
          <mxGeometry relative="1" as="geometry">
            <mxPoint x="470" y="285" as="targetPoint" />
          </mxGeometry>
        </mxCell>
        <mxCell id="xviSgolfPBOpMJryr8qm-60" value="&lt;font style=&quot;font-size: 13px;&quot;&gt;Relocation&lt;/font&gt;" style="rounded=1;whiteSpace=wrap;html=1;shadow=0;labelBackgroundColor=none;strokeWidth=1;fontFamily=Helvetica;fontSize=16;align=center;strokeColor=#d6b656;fillColor=#fff2cc;fontStyle=1;movable=1;resizable=1;rotatable=1;deletable=1;editable=1;locked=0;connectable=1;" parent="iOC6fSmJqCydzc7WDYuV-107" vertex="1">
          <mxGeometry y="140" width="100" height="40" as="geometry" />
        </mxCell>
        <mxCell id="iOC6fSmJqCydzc7WDYuV-90" style="edgeStyle=orthogonalEdgeStyle;rounded=0;orthogonalLoop=1;jettySize=auto;html=1;entryX=0.5;entryY=0;entryDx=0;entryDy=0;movable=1;resizable=1;rotatable=1;deletable=1;editable=1;locked=0;connectable=1;" edge="1" parent="iOC6fSmJqCydzc7WDYuV-107" source="iOC6fSmJqCydzc7WDYuV-2" target="xviSgolfPBOpMJryr8qm-36">
          <mxGeometry relative="1" as="geometry">
            <Array as="points">
              <mxPoint x="190" y="210" />
              <mxPoint x="50" y="210" />
            </Array>
          </mxGeometry>
        </mxCell>
        <mxCell id="iOC6fSmJqCydzc7WDYuV-91" style="edgeStyle=orthogonalEdgeStyle;rounded=0;orthogonalLoop=1;jettySize=auto;html=1;entryX=0.5;entryY=0;entryDx=0;entryDy=0;movable=1;resizable=1;rotatable=1;deletable=1;editable=1;locked=0;connectable=1;" edge="1" parent="iOC6fSmJqCydzc7WDYuV-107" source="iOC6fSmJqCydzc7WDYuV-2" target="xviSgolfPBOpMJryr8qm-37">
          <mxGeometry relative="1" as="geometry" />
        </mxCell>
        <mxCell id="iOC6fSmJqCydzc7WDYuV-92" style="edgeStyle=orthogonalEdgeStyle;rounded=0;orthogonalLoop=1;jettySize=auto;html=1;entryX=0.5;entryY=0;entryDx=0;entryDy=0;movable=1;resizable=1;rotatable=1;deletable=1;editable=1;locked=0;connectable=1;" edge="1" parent="iOC6fSmJqCydzc7WDYuV-107" source="iOC6fSmJqCydzc7WDYuV-2" target="xviSgolfPBOpMJryr8qm-41">
          <mxGeometry relative="1" as="geometry">
            <Array as="points">
              <mxPoint x="190" y="210" />
              <mxPoint x="331" y="210" />
            </Array>
          </mxGeometry>
        </mxCell>
        <mxCell id="iOC6fSmJqCydzc7WDYuV-93" style="edgeStyle=orthogonalEdgeStyle;rounded=0;orthogonalLoop=1;jettySize=auto;html=1;entryX=0.5;entryY=0;entryDx=0;entryDy=0;movable=1;resizable=1;rotatable=1;deletable=1;editable=1;locked=0;connectable=1;" edge="1" parent="iOC6fSmJqCydzc7WDYuV-107" source="iOC6fSmJqCydzc7WDYuV-2" target="xviSgolfPBOpMJryr8qm-40">
          <mxGeometry relative="1" as="geometry">
            <Array as="points">
              <mxPoint x="190" y="210" />
              <mxPoint x="471" y="210" />
            </Array>
          </mxGeometry>
        </mxCell>
        <mxCell id="iOC6fSmJqCydzc7WDYuV-2" value="&lt;span&gt;Relocated &lt;br&gt;Satellite&lt;/span&gt;" style="shape=dataStorage;whiteSpace=wrap;html=1;fixedSize=1;fillColor=#d5e8d4;strokeColor=#82b366;fontFamily=Helvetica;fontStyle=1;size=9;movable=1;resizable=1;rotatable=1;deletable=1;editable=1;locked=0;connectable=1;" vertex="1" parent="iOC6fSmJqCydzc7WDYuV-107">
          <mxGeometry x="140" y="140" width="100" height="40" as="geometry" />
        </mxCell>
        <mxCell id="iOC6fSmJqCydzc7WDYuV-40" style="edgeStyle=orthogonalEdgeStyle;rounded=0;orthogonalLoop=1;jettySize=auto;html=1;entryX=0;entryY=0.5;entryDx=0;entryDy=0;fontFamily=Helvetica;fontStyle=1;movable=1;resizable=1;rotatable=1;deletable=1;editable=1;locked=0;connectable=1;" edge="1" parent="iOC6fSmJqCydzc7WDYuV-107" source="xviSgolfPBOpMJryr8qm-60" target="iOC6fSmJqCydzc7WDYuV-2">
          <mxGeometry relative="1" as="geometry" />
        </mxCell>
        <mxCell id="iOC6fSmJqCydzc7WDYuV-44" style="edgeStyle=orthogonalEdgeStyle;rounded=0;orthogonalLoop=1;jettySize=auto;html=1;entryX=0.5;entryY=0;entryDx=0;entryDy=0;fontFamily=Helvetica;fontStyle=1;movable=1;resizable=1;rotatable=1;deletable=1;editable=1;locked=0;connectable=1;" edge="1" parent="iOC6fSmJqCydzc7WDYuV-107" source="iOC6fSmJqCydzc7WDYuV-5" target="xviSgolfPBOpMJryr8qm-60">
          <mxGeometry relative="1" as="geometry" />
        </mxCell>
        <mxCell id="iOC6fSmJqCydzc7WDYuV-5" value="&lt;span&gt;Satellite&amp;nbsp;&lt;/span&gt;" style="shape=dataStorage;whiteSpace=wrap;html=1;fixedSize=1;fillColor=#d5e8d4;strokeColor=#82b366;fontFamily=Helvetica;fontStyle=1;size=9;movable=1;resizable=1;rotatable=1;deletable=1;editable=1;locked=0;connectable=1;" vertex="1" parent="iOC6fSmJqCydzc7WDYuV-107">
          <mxGeometry y="80" width="100" height="40" as="geometry" />
        </mxCell>
        <mxCell id="iOC6fSmJqCydzc7WDYuV-42" style="edgeStyle=orthogonalEdgeStyle;rounded=0;orthogonalLoop=1;jettySize=auto;html=1;exitX=0;exitY=0.5;exitDx=0;exitDy=0;entryX=1;entryY=0.5;entryDx=0;entryDy=0;fontFamily=Helvetica;fontStyle=1;movable=1;resizable=1;rotatable=1;deletable=1;editable=1;locked=0;connectable=1;" edge="1" parent="iOC6fSmJqCydzc7WDYuV-107" source="xviSgolfPBOpMJryr8qm-26" target="iOC6fSmJqCydzc7WDYuV-5">
          <mxGeometry relative="1" as="geometry" />
        </mxCell>
        <mxCell id="iOC6fSmJqCydzc7WDYuV-95" style="edgeStyle=orthogonalEdgeStyle;rounded=0;orthogonalLoop=1;jettySize=auto;html=1;entryX=0.75;entryY=0;entryDx=0;entryDy=0;dashed=1;dashPattern=1 1;movable=1;resizable=1;rotatable=1;deletable=1;editable=1;locked=0;connectable=1;" edge="1" parent="iOC6fSmJqCydzc7WDYuV-107" source="iOC6fSmJqCydzc7WDYuV-7" target="xviSgolfPBOpMJryr8qm-37">
          <mxGeometry relative="1" as="geometry">
            <Array as="points">
              <mxPoint x="471" y="200" />
              <mxPoint x="215" y="200" />
            </Array>
          </mxGeometry>
        </mxCell>
        <mxCell id="iOC6fSmJqCydzc7WDYuV-96" style="edgeStyle=orthogonalEdgeStyle;rounded=0;orthogonalLoop=1;jettySize=auto;html=1;entryX=0.75;entryY=0;entryDx=0;entryDy=0;dashed=1;dashPattern=1 1;movable=1;resizable=1;rotatable=1;deletable=1;editable=1;locked=0;connectable=1;" edge="1" parent="iOC6fSmJqCydzc7WDYuV-107" source="iOC6fSmJqCydzc7WDYuV-7" target="xviSgolfPBOpMJryr8qm-41">
          <mxGeometry relative="1" as="geometry">
            <Array as="points">
              <mxPoint x="471" y="200" />
              <mxPoint x="356" y="200" />
            </Array>
          </mxGeometry>
        </mxCell>
        <mxCell id="iOC6fSmJqCydzc7WDYuV-97" style="edgeStyle=orthogonalEdgeStyle;rounded=0;orthogonalLoop=1;jettySize=auto;html=1;entryX=0.75;entryY=0;entryDx=0;entryDy=0;dashed=1;dashPattern=1 1;movable=1;resizable=1;rotatable=1;deletable=1;editable=1;locked=0;connectable=1;" edge="1" parent="iOC6fSmJqCydzc7WDYuV-107" source="iOC6fSmJqCydzc7WDYuV-7" target="xviSgolfPBOpMJryr8qm-40">
          <mxGeometry relative="1" as="geometry">
            <Array as="points">
              <mxPoint x="471" y="200" />
              <mxPoint x="496" y="200" />
            </Array>
          </mxGeometry>
        </mxCell>
        <mxCell id="iOC6fSmJqCydzc7WDYuV-7" value="&lt;span&gt;Env.&lt;br&gt;variables&lt;br&gt;&lt;/span&gt;" style="shape=dataStorage;whiteSpace=wrap;html=1;fixedSize=1;fillColor=#d5e8d4;strokeColor=#82b366;fontFamily=Helvetica;fontStyle=1;size=10;movable=1;resizable=1;rotatable=1;deletable=1;editable=1;locked=0;connectable=1;" vertex="1" parent="iOC6fSmJqCydzc7WDYuV-107">
          <mxGeometry x="421" y="140" width="100" height="40" as="geometry" />
        </mxCell>
        <mxCell id="iOC6fSmJqCydzc7WDYuV-39" style="edgeStyle=orthogonalEdgeStyle;rounded=0;orthogonalLoop=1;jettySize=auto;html=1;entryX=0.5;entryY=0;entryDx=0;entryDy=0;fontFamily=Helvetica;fontStyle=1;movable=1;resizable=1;rotatable=1;deletable=1;editable=1;locked=0;connectable=1;" edge="1" parent="iOC6fSmJqCydzc7WDYuV-107" source="xviSgolfPBOpMJryr8qm-27" target="iOC6fSmJqCydzc7WDYuV-7">
          <mxGeometry relative="1" as="geometry" />
        </mxCell>
        <mxCell id="iOC6fSmJqCydzc7WDYuV-10" value="deepRainband" style="rounded=1;whiteSpace=wrap;html=1;shadow=0;labelBackgroundColor=none;strokeWidth=1;fontFamily=Helvetica;fontSize=12;align=center;strokeColor=#d6b656;fillColor=#fff2cc;fontStyle=1;movable=1;resizable=1;rotatable=1;deletable=1;editable=1;locked=0;connectable=1;" vertex="1" parent="iOC6fSmJqCydzc7WDYuV-107">
          <mxGeometry x="281" y="80" width="100" height="40" as="geometry" />
        </mxCell>
        <mxCell id="iOC6fSmJqCydzc7WDYuV-98" style="edgeStyle=orthogonalEdgeStyle;rounded=0;orthogonalLoop=1;jettySize=auto;html=1;entryX=0;entryY=0.5;entryDx=0;entryDy=0;movable=1;resizable=1;rotatable=1;deletable=1;editable=1;locked=0;connectable=1;" edge="1" parent="iOC6fSmJqCydzc7WDYuV-107" source="iOC6fSmJqCydzc7WDYuV-2" target="iOC6fSmJqCydzc7WDYuV-10">
          <mxGeometry relative="1" as="geometry" />
        </mxCell>
        <mxCell id="iOC6fSmJqCydzc7WDYuV-94" style="edgeStyle=orthogonalEdgeStyle;rounded=0;orthogonalLoop=1;jettySize=auto;html=1;entryX=0.25;entryY=0;entryDx=0;entryDy=0;dashed=1;movable=1;resizable=1;rotatable=1;deletable=1;editable=1;locked=0;connectable=1;" edge="1" parent="iOC6fSmJqCydzc7WDYuV-107" source="iOC6fSmJqCydzc7WDYuV-15" target="xviSgolfPBOpMJryr8qm-37">
          <mxGeometry relative="1" as="geometry">
            <Array as="points">
              <mxPoint x="331" y="190" />
              <mxPoint x="165" y="190" />
            </Array>
          </mxGeometry>
        </mxCell>
        <mxCell id="iOC6fSmJqCydzc7WDYuV-15" value="fake PMW" style="shape=dataStorage;whiteSpace=wrap;html=1;fixedSize=1;fillColor=#d5e8d4;strokeColor=#82b366;fontFamily=Helvetica;fontStyle=1;size=10;movable=1;resizable=1;rotatable=1;deletable=1;editable=1;locked=0;connectable=1;" vertex="1" parent="iOC6fSmJqCydzc7WDYuV-107">
          <mxGeometry x="281" y="140" width="100" height="40" as="geometry" />
        </mxCell>
        <mxCell id="iOC6fSmJqCydzc7WDYuV-45" style="edgeStyle=orthogonalEdgeStyle;rounded=0;orthogonalLoop=1;jettySize=auto;html=1;entryX=0.5;entryY=0;entryDx=0;entryDy=0;fontFamily=Helvetica;fontStyle=1;movable=1;resizable=1;rotatable=1;deletable=1;editable=1;locked=0;connectable=1;" edge="1" parent="iOC6fSmJqCydzc7WDYuV-107" source="iOC6fSmJqCydzc7WDYuV-10" target="iOC6fSmJqCydzc7WDYuV-15">
          <mxGeometry relative="1" as="geometry" />
        </mxCell>
        <mxCell id="iOC6fSmJqCydzc7WDYuV-99" style="edgeStyle=orthogonalEdgeStyle;rounded=0;orthogonalLoop=1;jettySize=auto;html=1;entryX=0;entryY=0.5;entryDx=0;entryDy=0;movable=1;resizable=1;rotatable=1;deletable=1;editable=1;locked=0;connectable=1;" edge="1" parent="iOC6fSmJqCydzc7WDYuV-107" source="iOC6fSmJqCydzc7WDYuV-16" target="xviSgolfPBOpMJryr8qm-40">
          <mxGeometry relative="1" as="geometry">
            <Array as="points">
              <mxPoint x="190" y="350" />
              <mxPoint x="401" y="350" />
              <mxPoint x="401" y="250" />
            </Array>
          </mxGeometry>
        </mxCell>
        <mxCell id="iOC6fSmJqCydzc7WDYuV-16" value="R34&amp;nbsp;&lt;br&gt;Estimation" style="shape=dataStorage;whiteSpace=wrap;html=1;fixedSize=1;fillColor=#f8cecc;strokeColor=#b85450;fontFamily=Helvetica;fontStyle=1;size=9;movable=1;resizable=1;rotatable=1;deletable=1;editable=1;locked=0;connectable=1;" vertex="1" parent="iOC6fSmJqCydzc7WDYuV-107">
          <mxGeometry x="140" y="290" width="100" height="40" as="geometry" />
        </mxCell>
        <mxCell id="iOC6fSmJqCydzc7WDYuV-71" style="edgeStyle=orthogonalEdgeStyle;rounded=0;orthogonalLoop=1;jettySize=auto;html=1;entryX=0.5;entryY=0;entryDx=0;entryDy=0;fontFamily=Helvetica;fontStyle=1;movable=1;resizable=1;rotatable=1;deletable=1;editable=1;locked=0;connectable=1;" edge="1" parent="iOC6fSmJqCydzc7WDYuV-107" source="xviSgolfPBOpMJryr8qm-37" target="iOC6fSmJqCydzc7WDYuV-16">
          <mxGeometry relative="1" as="geometry" />
        </mxCell>
        <mxCell id="iOC6fSmJqCydzc7WDYuV-83" style="edgeStyle=orthogonalEdgeStyle;rounded=0;orthogonalLoop=1;jettySize=auto;html=1;entryX=0;entryY=0.5;entryDx=0;entryDy=0;movable=1;resizable=1;rotatable=1;deletable=1;editable=1;locked=0;connectable=1;" edge="1" parent="iOC6fSmJqCydzc7WDYuV-107" source="iOC6fSmJqCydzc7WDYuV-18" target="xviSgolfPBOpMJryr8qm-41">
          <mxGeometry relative="1" as="geometry">
            <Array as="points">
              <mxPoint x="51" y="350" />
              <mxPoint x="261" y="350" />
              <mxPoint x="261" y="250" />
            </Array>
          </mxGeometry>
        </mxCell>
        <mxCell id="iOC6fSmJqCydzc7WDYuV-18" value="Vmax &lt;br&gt;Estimation" style="shape=dataStorage;whiteSpace=wrap;html=1;fixedSize=1;fillColor=#f8cecc;strokeColor=#b85450;fontFamily=Helvetica;fontStyle=1;size=9;movable=1;resizable=1;rotatable=1;deletable=1;editable=1;locked=0;connectable=1;" vertex="1" parent="iOC6fSmJqCydzc7WDYuV-107">
          <mxGeometry y="290" width="100" height="40" as="geometry" />
        </mxCell>
        <mxCell id="iOC6fSmJqCydzc7WDYuV-19" value="Vmax &lt;br&gt;Forecast" style="shape=dataStorage;whiteSpace=wrap;html=1;fixedSize=1;fillColor=#f8cecc;strokeColor=#b85450;fontFamily=Helvetica;fontStyle=1;size=10;movable=1;resizable=1;rotatable=1;deletable=1;editable=1;locked=0;connectable=1;" vertex="1" parent="iOC6fSmJqCydzc7WDYuV-107">
          <mxGeometry x="281" y="290" width="100" height="40" as="geometry" />
        </mxCell>
        <mxCell id="iOC6fSmJqCydzc7WDYuV-72" style="edgeStyle=orthogonalEdgeStyle;rounded=0;orthogonalLoop=1;jettySize=auto;html=1;entryX=0.5;entryY=0;entryDx=0;entryDy=0;fontFamily=Helvetica;fontStyle=1;movable=1;resizable=1;rotatable=1;deletable=1;editable=1;locked=0;connectable=1;" edge="1" parent="iOC6fSmJqCydzc7WDYuV-107" source="xviSgolfPBOpMJryr8qm-41" target="iOC6fSmJqCydzc7WDYuV-19">
          <mxGeometry relative="1" as="geometry" />
        </mxCell>
        <mxCell id="iOC6fSmJqCydzc7WDYuV-22" value="R34&lt;br&gt;Forecast" style="shape=dataStorage;whiteSpace=wrap;html=1;fixedSize=1;fillColor=#f8cecc;strokeColor=#b85450;fontFamily=Helvetica;fontStyle=1;size=10;movable=1;resizable=1;rotatable=1;deletable=1;editable=1;locked=0;connectable=1;" vertex="1" parent="iOC6fSmJqCydzc7WDYuV-107">
          <mxGeometry x="421" y="290" width="100" height="40" as="geometry" />
        </mxCell>
        <mxCell id="iOC6fSmJqCydzc7WDYuV-50" style="edgeStyle=orthogonalEdgeStyle;rounded=0;orthogonalLoop=1;jettySize=auto;html=1;entryX=0.5;entryY=0;entryDx=0;entryDy=0;fontFamily=Helvetica;fontStyle=1;movable=1;resizable=1;rotatable=1;deletable=1;editable=1;locked=0;connectable=1;" edge="1" parent="iOC6fSmJqCydzc7WDYuV-107" source="xviSgolfPBOpMJryr8qm-40" target="iOC6fSmJqCydzc7WDYuV-22">
          <mxGeometry relative="1" as="geometry" />
        </mxCell>
        <mxCell id="iOC6fSmJqCydzc7WDYuV-100" style="edgeStyle=orthogonalEdgeStyle;rounded=0;orthogonalLoop=1;jettySize=auto;html=1;entryX=0.5;entryY=0;entryDx=0;entryDy=0;movable=1;resizable=1;rotatable=1;deletable=1;editable=1;locked=0;connectable=1;" edge="1" parent="iOC6fSmJqCydzc7WDYuV-107" source="iOC6fSmJqCydzc7WDYuV-32" target="xviSgolfPBOpMJryr8qm-26">
          <mxGeometry relative="1" as="geometry">
            <Array as="points">
              <mxPoint x="331" y="60" />
              <mxPoint x="190" y="60" />
            </Array>
          </mxGeometry>
        </mxCell>
        <mxCell id="iOC6fSmJqCydzc7WDYuV-101" style="edgeStyle=orthogonalEdgeStyle;rounded=0;orthogonalLoop=1;jettySize=auto;html=1;entryX=0.5;entryY=0;entryDx=0;entryDy=0;movable=1;resizable=1;rotatable=1;deletable=1;editable=1;locked=0;connectable=1;" edge="1" parent="iOC6fSmJqCydzc7WDYuV-107" source="iOC6fSmJqCydzc7WDYuV-32" target="xviSgolfPBOpMJryr8qm-27">
          <mxGeometry relative="1" as="geometry">
            <Array as="points">
              <mxPoint x="331" y="60" />
              <mxPoint x="471" y="60" />
            </Array>
          </mxGeometry>
        </mxCell>
        <mxCell id="iOC6fSmJqCydzc7WDYuV-32" value="&lt;span&gt;TC &lt;br&gt;location&lt;/span&gt;" style="shape=dataStorage;whiteSpace=wrap;html=1;fixedSize=1;fillColor=#d5e8d4;strokeColor=#82b366;align=center;fontFamily=Helvetica;fontStyle=1;size=10;movable=1;resizable=1;rotatable=1;deletable=1;editable=1;locked=0;connectable=1;" vertex="1" parent="iOC6fSmJqCydzc7WDYuV-107">
          <mxGeometry x="281" width="100" height="40" as="geometry" />
        </mxCell>
        <mxCell id="iOC6fSmJqCydzc7WDYuV-102" style="edgeStyle=orthogonalEdgeStyle;rounded=0;orthogonalLoop=1;jettySize=auto;html=1;entryX=0;entryY=0.5;entryDx=0;entryDy=0;movable=1;resizable=1;rotatable=1;deletable=1;editable=1;locked=0;connectable=1;" edge="1" parent="iOC6fSmJqCydzc7WDYuV-107" source="xviSgolfPBOpMJryr8qm-25" target="iOC6fSmJqCydzc7WDYuV-32">
          <mxGeometry relative="1" as="geometry" />
        </mxCell>
      </root>
    </mxGraphModel>
  </diagram>
</mxfile>
